<?xml version="1.0" encoding="utf-8"?>
<!-- Generator: Adobe Illustrator 22.1.0, SVG Export Plug-In . SVG Version: 6.00 Build 0)  -->
<svg version="1.1" id="Layer_1" xmlns="http://www.w3.org/2000/svg" xmlns:xlink="http://www.w3.org/1999/xlink" x="0px" y="0px"
	 viewBox="0 0 392.5 392.5" style="enable-background:new 0 0 392.5 392.5;" xml:space="preserve">
<style type="text/css">
	.st0{fill:#567F9A;}
	.st1{fill:#395666;}
	.st2{fill:#FFFFFF;}
	.st3{fill:#F0BC60;}
	.st4{fill:#936A2F;}
	.st5{fill:#5EC5BE;}
	.st6{fill:#4A918A;}
	.st7{fill:#F2706A;}
	.st8{fill:#A94A4B;}
	.st9{fill:none;}
	.st10{clip-path:url(#SVGID_2_);}
	.st11{fill:#DC7132;}
	.st12{fill:#8F421F;}
</style>
<g>
	<defs>
		<circle id="SVGID_1_" cx="196.2" cy="196.2" r="186.9"/>
	</defs>
	<clipPath id="SVGID_2_">
		<use xlink:href="#SVGID_1_"  style="overflow:visible;"/>
	</clipPath>
	<g class="st10">
		<rect x="-12.7" y="-42.4" class="st11" width="417.2" height="427.8"/>
		<polygon class="st12" points="85.3,291.9 221.7,374.8 404.5,374.8 404.5,208.1 226.2,80.1 167,163.7 214.2,213.9 		"/>
		<g>
			<path class="st2" d="M184.6,70.6c27-6.4,56.3,13.1,60.9,40.4c3.3,16.1-1.9,33.6-13.3,45.4c-11.2,11.9-28.3,17.8-44.5,15.3
				c-16.7-2.3-31.7-13.5-38.8-28.8c-6.2-12.7-6.6-27.9-1.4-41C153.5,86.1,168,73.8,184.6,70.6L184.6,70.6z"/>
			<path class="st2" d="M110.3,206.4c18.5-3.7,37-7.6,55.5-11.1c10.2,15.1,49.7,15.1,60.1-0.1c18.4,3.9,37,7.2,55.4,11.3
				c8.6,28.4,16.8,56.9,25.2,85.4c-22.6,0.1-173.9,0-221.2,0C93.4,263.3,101.9,234.9,110.3,206.4L110.3,206.4z"/>
		</g>
	</g>
</g>
<g>
</g>
</svg>
